<?xml version="1.0" encoding="UTF-8"?>
<svg width="32px" height="31px" viewBox="0 0 32 31" version="1.1" xmlns="http://www.w3.org/2000/svg" xmlns:xlink="http://www.w3.org/1999/xlink">
    <g id="Page-1" stroke="none" stroke-width="1" fill="none" fill-rule="evenodd">
        <g id="fireworks.inline" fill="#000" fill-rule="nonzero">
            <path d="M19.3432617,11.7441406 C19.2729492,11.7441406 19.2021484,11.7321777 19.1337891,11.7080078 L16,10.5935059 L12.8659668,11.7080078 C12.671875,11.7770996 12.4560547,11.7458496 12.2893066,11.6247559 C12.1225586,11.503418 12.0261231,11.3078613 12.0317382,11.1018066 L12.123291,7.7768555 L10.0949707,5.140625 C9.96923825,4.97753906 9.93212887,4.76245119 9.99584962,4.56640625 C10.0595703,4.37036131 10.2158203,4.21850587 10.4135742,4.16015625 L13.6040039,3.21972656 L15.484375,0.475830063 C15.6010742,0.305908188 15.7939453,0.204345688 16,0.204345688 C16.2060547,0.204345688 16.3989257,0.305908188 16.515625,0.475830063 L18.3959961,3.21972656 L21.5864257,4.16015625 C21.7841797,4.21850587 21.9404297,4.37036131 22.0041504,4.56640625 C22.0678711,4.76245119 22.0307617,4.97729494 21.9050293,5.140625 L19.876709,7.77709962 L19.9682617,11.1018066 C19.9738769,11.3078613 19.8774414,11.5036621 19.7106934,11.6247559 C19.6025391,11.7033691 19.4733887,11.7441406 19.3432617,11.7441406 L19.3432617,11.7441406 Z M11.6418457,5.10131837 L13.2495117,7.190918 C13.3371582,7.3046875 13.3828125,7.4453125 13.3789062,7.58911131 L13.3063965,10.2246094 L15.7905274,9.34130862 C15.9260254,9.29321288 16.0739746,9.29321288 16.2094726,9.34130862 L18.6933594,10.2246094 L18.6210938,7.58911131 C18.6169434,7.4453125 18.6628418,7.3046875 18.7504883,7.190918 L20.3581543,5.10131837 L17.8293457,4.35571288 C17.6914063,4.31518556 17.5717774,4.2282715 17.4904785,4.10961913 L16,1.93481444 L14.5095215,4.10961913 C14.4282226,4.2282715 14.3085938,4.31518556 14.1706543,4.35571288 L11.6418457,5.10131837 Z" id="Shape"></path>
            <path d="M25.1103516,5.98950194 C24.9802246,5.98950194 24.8510742,5.9487305 24.7429199,5.87011719 C24.5761719,5.74902344 24.4797363,5.55346681 24.4855957,5.34741212 L24.5239257,3.94653319 L23.6694336,2.83569337 C23.5437012,2.67236325 23.5068359,2.4575195 23.5703125,2.26147462 C23.6340332,2.06542969 23.7902832,1.91357425 23.9880371,1.85522462 L25.3322754,1.45898438 L26.1245117,0.3029785 C26.2412109,0.1328125 26.434082,0.03125 26.6401367,0.03125 C26.8461914,0.03125 27.0390625,0.1328125 27.1557617,0.3029785 L27.9479981,1.45898438 L29.2919922,1.85522462 C29.4897461,1.91357425 29.6459961,2.06542969 29.7099609,2.26147462 C29.7734375,2.4575195 29.7365722,2.67236325 29.6108399,2.83569337 L28.7561035,3.94653319 L28.7946777,5.34741212 C28.8005371,5.55346681 28.7041016,5.74902344 28.5373535,5.87011719 C28.3706055,5.99121094 28.1547851,6.02221681 27.9606934,5.95336913 L26.6401367,5.48388675 L25.3198242,5.95336913 C25.2514649,5.97753906 25.1806641,5.98950194 25.1103516,5.98950194 L25.1103516,5.98950194 Z M26.6401367,4.19555663 C26.7109375,4.19555663 26.7817383,4.2075195 26.8493652,4.23168944 L27.5200195,4.46997069 L27.5004882,3.75854494 C27.4963379,3.61474612 27.5422363,3.47412112 27.6298828,3.36035156 L28.0637207,2.79614256 L27.3811035,2.59497069 C27.2434082,2.55444337 27.1235351,2.46752931 27.0422363,2.34887694 L26.6398926,1.76171875 L26.2375488,2.34887694 C26.15625,2.46752931 26.0366211,2.55419925 25.8986816,2.59497069 L25.2160644,2.79614256 L25.6501465,3.36035156 C25.7375488,3.47412112 25.7834472,3.61474612 25.7792969,3.75854494 L25.7597656,4.46997069 L26.4304199,4.23168944 C26.4985351,4.2075195 26.5690918,4.19555663 26.6401367,4.19555663 L26.6401367,4.19555663 Z" id="Shape"></path>
            <path d="M6.88964844,5.98950194 C6.81933594,5.98950194 6.74853513,5.97753906 6.68017575,5.95336913 L5.35986325,5.48388675 L4.03955075,5.95336913 C3.84521488,6.02246094 3.62963869,5.99121094 3.4626465,5.87011719 C3.29589844,5.74902344 3.199707,5.55346681 3.20532225,5.34741212 L3.2438965,3.94653319 L2.38916013,2.83569337 C2.26342775,2.67236325 2.2265625,2.4575195 2.29028319,2.26147462 C2.35400388,2.06518556 2.51025388,1.91333006 2.70800781,1.8549805 L4.05200194,1.45874025 L4.84423825,0.302734375 C4.9609375,0.1328125 5.15380863,0.03125 5.35986325,0.03125 C5.565918,0.03125 5.75878906,0.1328125 5.87548825,0.302734375 L6.66772463,1.45874025 L8.01171875,1.85522462 C8.20947263,1.91333006 8.36572263,2.06542969 8.42944338,2.26147462 C8.49316406,2.4575195 8.45605469,2.67236325 8.33056638,2.83569337 L7.47583006,3.94628906 L7.51440431,5.347168 C7.5200195,5.55322263 7.42382813,5.74902344 7.25708006,5.87011719 C7.14892575,5.9487305 7.0200195,5.98950194 6.88964844,5.98950194 Z M5.35986325,4.19555663 C5.43066406,4.19555663 5.501709,4.2075195 5.56933594,4.23168944 L6.23999025,4.46997069 L6.220459,3.75854494 C6.21630862,3.61474612 6.262207,3.47412112 6.34960938,3.36035156 L6.78369138,2.79614256 L6.10107425,2.59497069 C5.96313475,2.55444337 5.84350587,2.46752931 5.762207,2.34887694 L5.35986325,1.76171875 L4.9575195,2.34887694 C4.87622069,2.46752931 4.75659181,2.55419925 4.61865237,2.59497069 L3.93603513,2.79614256 L4.37011719,3.36035156 C4.45776369,3.47412112 4.503418,3.61474612 4.49951175,3.75854494 L4.4799805,4.46997069 L5.15063475,4.23168944 C5.21826175,4.2075195 5.2890625,4.19555663 5.35986325,4.19555663 Z" id="Shape"></path>
            <path d="M16,25.8752441 C15.9594726,25.8752441 15.9182129,25.8708496 15.8781738,25.862793 C15.8381348,25.8552246 15.7988281,25.8427734 15.7612305,25.8271484 C15.7231445,25.8115234 15.6867676,25.7919922 15.6530762,25.7695312 C15.6186524,25.7470703 15.5869141,25.7209472 15.5581055,25.6921387 C15.5292969,25.6633301 15.5031738,25.6315918 15.4807129,25.597168 C15.4580078,25.5634766 15.4387207,25.5270996 15.4230957,25.4890137 C15.4074707,25.451416 15.3950195,25.4121094 15.3874512,25.3720703 C15.3793945,25.3320312 15.375,25.2907715 15.375,25.2502441 C15.375,25.2097168 15.3793945,25.168457 15.3874512,25.128418 C15.3950195,25.0883789 15.4074707,25.0490722 15.4230957,25.0109863 C15.4387207,24.9733887 15.4580078,24.9370117 15.4807129,24.9033203 C15.5031738,24.8688965 15.5292969,24.8371582 15.5581055,24.8083496 C15.5869141,24.779541 15.6186524,24.753418 15.6530762,24.730957 C15.6867676,24.7082519 15.7231445,24.6889649 15.7612305,24.6733399 C15.7988281,24.6577149 15.8381348,24.6457519 15.8781738,24.6376953 C15.9587402,24.621582 16.0412598,24.621582 16.1218262,24.6376953 C16.1618653,24.6457519 16.2011719,24.6577149 16.2387695,24.6733399 C16.2768555,24.6889649 16.3129883,24.7082519 16.3466797,24.730957 C16.3811035,24.753418 16.4130859,24.779541 16.4418945,24.8083496 C16.4707031,24.8371582 16.4968262,24.8688965 16.5192871,24.9033203 C16.5417481,24.9370117 16.5612793,24.9733887 16.5769043,25.0109863 C16.5925293,25.0490722 16.6049805,25.0883789 16.6123047,25.128418 C16.6206055,25.168457 16.625,25.2097168 16.625,25.2502441 C16.625,25.2907715 16.6206055,25.3322754 16.6123047,25.3720703 C16.6042481,25.4121094 16.5925293,25.451416 16.5769043,25.4890137 C16.5612793,25.5270996 16.5417481,25.5634766 16.5192871,25.597168 C16.4968262,25.6315918 16.4707031,25.6633301 16.4418945,25.6921387 C16.4130859,25.7209473 16.3811035,25.7470703 16.3466797,25.7695312 C16.3129883,25.7919922 16.2768555,25.8115234 16.2387695,25.8271484 C16.2011719,25.8427734 16.1618653,25.8552246 16.1218262,25.862793 C16.0817871,25.8708496 16.0405274,25.8752441 16,25.8752441 Z" id="Path"></path>
            <path d="M16,23.8127441 C15.6547851,23.8127441 15.375,23.532959 15.375,23.1877441 L15.375,12.875 C15.375,12.5300293 15.6547851,12.25 16,12.25 C16.3452149,12.25 16.625,12.5300293 16.625,12.875 L16.625,23.1877441 C16.625,23.5327149 16.3452149,23.8127441 16,23.8127441 Z" id="Path"></path>
            <path d="M26.6091309,19.8300781 C26.576416,19.8300781 26.5439453,19.8276367 26.5112305,19.8222656 C26.3076172,19.7900391 26.1330566,19.659668 26.0444336,19.4733887 L24.9211426,17.1103516 L22.5583496,15.9870606 C22.3720703,15.8986816 22.2414551,15.7241211 22.2092285,15.5205078 C22.1770019,15.3168945 22.2473144,15.1103516 22.3969726,14.96875 L24.2971191,13.1704101 L24.6352539,10.5759277 C24.6618652,10.371582 24.7875976,10.1933594 24.9711914,10.0998535 C25.1550293,10.0061035 25.3728027,10.0092774 25.5539551,10.1079101 L27.8515625,11.3591309 L30.4233399,10.8791504 C30.6259766,10.8410644 30.8342285,10.9057617 30.9799805,11.0515137 C31.1257324,11.1972656 31.1901856,11.4055176 31.1525879,11.6081543 L30.6723632,14.1799316 L31.9238281,16.4775391 C32.0222168,16.6586914 32.0253906,16.876709 31.9316406,17.0603027 C31.8381347,17.2438965 31.6599121,17.3696289 31.4555664,17.3962402 L28.8613281,17.734375 L27.0627441,19.6345215 C26.9438476,19.7604981 26.7792969,19.8300781 26.6091309,19.8300781 L26.6091309,19.8300781 Z M23.918457,15.2497559 L25.6586914,16.0769043 C25.7883301,16.1386719 25.8930664,16.2431641 25.954834,16.3730469 L26.7819824,18.1130371 L28.1062012,16.7138672 C28.2050781,16.609375 28.3369141,16.5422363 28.4794922,16.5236816 L30.3898926,16.2746582 L29.4682617,14.5827637 C29.3996582,14.456543 29.3764649,14.3105469 29.402832,14.1691894 L29.7563476,12.2751465 L27.8625488,12.6289062 C27.7211914,12.6550293 27.5751953,12.6320801 27.4489746,12.5632324 L25.7568359,11.6418457 L25.5080566,13.5522461 C25.4895019,13.6948242 25.4223632,13.8266601 25.3178711,13.925293 L23.918457,15.2497559 Z" id="Shape"></path>
            <path d="M17.1030274,30.2416992 C17.0812988,30.2416992 17.0598144,30.2407226 17.0378418,30.2385254 C16.6945801,30.2028809 16.4450684,29.8957519 16.4804688,29.5524902 C16.8901367,25.5895996 18.7980957,22.5791016 20.3266601,20.7514649 C21.9772949,18.7773437 23.5383301,17.7282715 23.6037598,17.6845703 C23.8911133,17.4934082 24.2790528,17.5710449 24.470459,17.8586426 C24.6616211,18.1457519 24.5837403,18.5339356 24.2963868,18.7250976 C24.2370606,18.7646484 22.8215332,19.7163086 21.2854004,21.5532226 C19.8688965,23.2473144 18.1008301,26.0324707 17.7238769,29.6811524 C17.6906738,30.0024414 17.4191894,30.2416992 17.1030274,30.2416992 L17.1030274,30.2416992 Z" id="Path"></path>
            <path d="M5.39086913,19.8300781 C5.22070312,19.8300781 5.05615237,19.7604981 4.93701175,19.6347656 L3.13867188,17.7346191 L0.544189438,17.3964844 C0.33984375,17.3698731 0.161621125,17.2441406 0.06811525,17.0603028 C-0.025390625,16.876709 -0.0224609375,16.6586914 0.076171875,16.4777832 L1.32739256,14.1801758 L0.847412125,11.6081543 C0.809326188,11.4055176 0.874023438,11.1972656 1.01977538,11.0515137 C1.16552738,10.9057618 1.37377931,10.8410644 1.576416,10.8791504 L4.14819337,11.359375 L6.44580075,10.1079101 C6.62695312,10.0092774 6.84497069,10.0063476 7.02856444,10.0998535 C7.21215819,10.1933594 7.33789062,10.371582 7.36450194,10.5759278 L7.70263675,13.1704101 L9.60302737,14.96875 C9.75268556,15.1105957 9.82275388,15.3168945 9.79052737,15.5205078 C9.75830075,15.7241211 9.62768556,15.8986816 9.44165038,15.9873047 L7.07861325,17.1105957 L5.95556638,19.4733887 C5.86694337,19.6594238 5.69238281,19.7900391 5.4887695,19.8222656 C5.45605469,19.8276368 5.42333987,19.8300781 5.39086913,19.8300781 L5.39086913,19.8300781 Z M1.61010744,16.2746582 L3.52050781,16.5236816 C3.66308594,16.5422363 3.79492188,16.609375 3.89355469,16.7138672 L5.21801756,18.1130371 L6.045166,16.3730469 C6.10693363,16.2431641 6.21142575,16.1386719 6.34130863,16.0769043 L8.08129881,15.2497559 L6.68212888,13.925293 C6.57763675,13.8266601 6.51049806,13.6948243 6.49194338,13.5522461 L6.24291994,11.6418457 L4.55102538,12.5634766 C4.42480469,12.6320801 4.27856444,12.6552734 4.13745119,12.6289063 L2.24340819,12.2753906 L2.59692381,14.1691894 C2.62353513,14.3105469 2.60034181,14.4567871 2.53149413,14.5827637 L1.61010744,16.2746582 Z" id="Shape"></path>
            <path d="M14.8969726,30.2416992 C14.5805664,30.2416992 14.3093262,30.0024414 14.2761231,29.6809082 C13.8989258,26.0322266 12.1311035,23.2473144 10.7145996,21.5532226 C9.17919925,19.7172851 7.76293944,18.7646484 7.70336913,18.7250976 C7.41601562,18.5336914 7.33813475,18.1455078 7.529541,17.8583984 C7.72094725,17.5710449 8.10888675,17.4931641 8.39624025,17.6845703 C8.46191406,17.7282715 10.0236816,18.7785644 11.6733399,20.7514649 C13.2019043,22.5791016 15.1098633,25.5895996 15.5195312,29.5524902 C15.5549316,29.8957519 15.3054199,30.2028809 14.9619141,30.2382812 C14.9401856,30.2407226 14.918457,30.2416992 14.8969726,30.2416992 Z" id="Path"></path>
            <path d="M20.9099121,30.1252441 C20.8227539,30.1252441 20.7341309,30.1069336 20.6496582,30.0683594 C20.3359375,29.9243164 20.1982422,29.5534668 20.3422851,29.2395019 C21.2963867,27.1591797 22.8867188,25.8754883 24.0527344,25.1647949 C25.2883301,24.4116211 26.2922363,24.1320801 26.4025879,24.1025391 C26.7363281,24.0136719 27.0786133,24.2119141 27.1674805,24.5454101 C27.2563476,24.8789062 27.0581055,25.2214356 26.7246094,25.3103028 C26.7155762,25.3127441 25.8071289,25.5593262 24.703125,26.2321778 C23.6860351,26.8520508 22.3007813,27.9675293 21.4782715,29.7607422 C21.373291,29.9899903 21.1467285,30.1252441 20.9099121,30.1252441 L20.9099121,30.1252441 Z" id="Path"></path>
            <path d="M11.6826172,30.1252441 C11.4458008,30.1252441 11.2192383,29.9899902 11.1140137,29.7607422 C10.2917481,27.9675293 8.90649413,26.8520508 7.88916013,26.2321777 C6.78540038,25.5593262 5.876709,25.3127441 5.86767575,25.3103027 C5.53417969,25.2211914 5.3359375,24.8789062 5.42504881,24.5454101 C5.513916,24.2119141 5.85644531,24.0136719 6.18994138,24.1025391 C6.30053713,24.1320801 7.3046875,24.4121094 8.53979494,25.1647949 C9.70581056,25.8754882 11.2961426,27.1591797 12.2502441,29.2395019 C12.3942871,29.5534668 12.2565918,29.9243164 11.9426269,30.0683594 C11.8581543,30.1069336 11.7697754,30.1252441 11.6826172,30.1252441 Z" id="Path"></path>
            <path d="M29.1152344,22.1867676 C28.7702637,22.1867676 28.4902344,21.9069824 28.4902344,21.5617676 L28.4902344,21.0415039 C28.4902344,20.6962891 28.7702637,20.4165039 29.1152344,20.4165039 C29.4604492,20.4165039 29.7402344,20.6962891 29.7402344,21.0415039 L29.7402344,21.5617676 C29.7402344,21.9069824 29.4604492,22.1867676 29.1152344,22.1867676 L29.1152344,22.1867676 Z" id="Path"></path>
            <path d="M29.1152344,25.0087891 C28.7702637,25.0087891 28.4902344,24.7287597 28.4902344,24.3837891 L28.4902344,23.8632812 C28.4902344,23.5183106 28.7702637,23.2382812 29.1152344,23.2382812 C29.4604492,23.2382812 29.7402344,23.5183106 29.7402344,23.8632812 L29.7402344,24.3837891 C29.7402344,24.7287597 29.4604492,25.0087891 29.1152344,25.0087891 Z" id="Path"></path>
            <path d="M30.7863769,23.3376465 L30.2661132,23.3376465 C29.9211426,23.3376465 29.6411132,23.0576172 29.6411132,22.7126465 C29.6411132,22.3674316 29.9211426,22.0876465 30.2661132,22.0876465 L30.7863769,22.0876465 C31.1315918,22.0876465 31.4113769,22.3674316 31.4113769,22.7126465 C31.4113769,23.0576172 31.1315918,23.3376465 30.7863769,23.3376465 L30.7863769,23.3376465 Z" id="Path"></path>
            <path d="M27.9645996,23.3376465 L27.4443359,23.3376465 C27.0991211,23.3376465 26.8193359,23.0576172 26.8193359,22.7126465 C26.8193359,22.3674316 27.0991211,22.0876465 27.4443359,22.0876465 L27.9645996,22.0876465 C28.3098144,22.0876465 28.5895996,22.3674316 28.5895996,22.7126465 C28.5895996,23.0576172 28.3098144,23.3376465 27.9645996,23.3376465 L27.9645996,23.3376465 Z" id="Path"></path>
            <path d="M2.8845215,22.1867676 C2.53930663,22.1867676 2.2595215,21.9069824 2.2595215,21.5617676 L2.2595215,21.0415039 C2.2595215,20.6962891 2.53930663,20.4165039 2.8845215,20.4165039 C3.22973631,20.4165039 3.5095215,20.6962891 3.5095215,21.0415039 L3.5095215,21.5617676 C3.5095215,21.9069824 3.22973631,22.1867676 2.8845215,22.1867676 L2.8845215,22.1867676 Z" id="Path"></path>
            <path d="M2.8845215,25.0087891 C2.53930663,25.0087891 2.2595215,24.7287597 2.2595215,24.3837891 L2.2595215,23.8632812 C2.2595215,23.5183106 2.53930663,23.2382812 2.8845215,23.2382812 C3.22973631,23.2382812 3.5095215,23.5183106 3.5095215,23.8632812 L3.5095215,24.3837891 C3.5095215,24.7287597 3.22973631,25.0087891 2.8845215,25.0087891 Z" id="Path"></path>
            <path d="M4.55566406,23.3376465 L4.03540038,23.3376465 C3.69018556,23.3376465 3.41040038,23.0576172 3.41040038,22.7126465 C3.41040038,22.3674316 3.69018556,22.0876465 4.03540038,22.0876465 L4.55566406,22.0876465 C4.90087888,22.0876465 5.18066406,22.3674316 5.18066406,22.7126465 C5.18066406,23.0576172 4.90087888,23.3376465 4.55566406,23.3376465 Z" id="Path"></path>
            <path d="M1.73388675,23.3376465 L1.21337888,23.3376465 C0.868408188,23.3376465 0.588378875,23.0576172 0.588378875,22.7126465 C0.588378875,22.3674316 0.868408188,22.0876465 1.21337888,22.0876465 L1.73388675,22.0876465 C2.07910156,22.0876465 2.35888675,22.3674316 2.35888675,22.7126465 C2.35888675,23.0576172 2.07910156,23.3376465 1.73388675,23.3376465 Z" id="Path"></path>
        </g>
    </g>
</svg>
