<svg height="512pt" viewBox="-66 0 512 512" width="512pt" xmlns="http://www.w3.org/2000/svg"><path d="m330 371v-62h-280v62.480469c40.410156 68.429687 102.148438 130.519531 140 130.519531 37.921875 0 99.800781-62.308594 140.210938-130.878906zm0 0" fill="#8c4a37"/><path d="m370 256c0 33.121094-16.25 75.179688-39.789062 115.121094l-.210938-.121094v-35c0-11.050781-8.949219-20-20-20s-20 8.949219-20 20-8.949219 20-20 20-20-8.949219-20-20-8.949219-20-20-20-20 8.949219-20 20v40c0 11.050781-8.949219 20-20 20s-20-8.949219-20-20v-40c0-11.050781-8.949219-20-20-20s-20 8.949219-20 20v20c0 11.050781-8.949219 20-20 20s-20-8.949219-20-20v-20c0-11.050781-8.949219-20-20-20s-20 8.949219-20 20v35.480469c-23.648438-40.039063-40-82.261719-40-115.480469 0-90 60-120 180-120s180 30 180 120zm0 0" fill="#ff637b"/><path d="m280 46c0 49.710938-40.289062 90-90 90s-90-40.289062-90-90c23.460938 0 44.628906 9.191406 60.648438 23.890625 3.332031-30.230469 29.351562-59.890625 29.351562-59.890625s26.019531 29.660156 29.351562 59.890625c16.019532-14.699219 37.1875-23.890625 60.648438-23.890625zm0 0" fill="#7fe881"/><path d="m320 256c0 5.523438-4.476562 10-10 10s-10-4.476562-10-10 4.476562-10 10-10 10 4.476562 10 10zm0 0"/><path d="m290 196c0 5.523438-4.476562 10-10 10s-10-4.476562-10-10 4.476562-10 10-10 10 4.476562 10 10zm0 0"/><path d="m260 256c0 5.523438-4.476562 10-10 10s-10-4.476562-10-10 4.476562-10 10-10 10 4.476562 10 10zm0 0"/><path d="m230 196c0 5.523438-4.476562 10-10 10s-10-4.476562-10-10 4.476562-10 10-10 10 4.476562 10 10zm0 0"/><path d="m200 256c0 5.523438-4.476562 10-10 10s-10-4.476562-10-10 4.476562-10 10-10 10 4.476562 10 10zm0 0"/><path d="m170 196c0 5.523438-4.476562 10-10 10s-10-4.476562-10-10 4.476562-10 10-10 10 4.476562 10 10zm0 0"/><path d="m140 256c0 5.523438-4.476562 10-10 10s-10-4.476562-10-10 4.476562-10 10-10 10 4.476562 10 10zm0 0"/><path d="m110 196c0 5.523438-4.476562 10-10 10s-10-4.476562-10-10 4.476562-10 10-10 10 4.476562 10 10zm0 0"/><path d="m80 256c0 5.523438-4.476562 10-10 10s-10-4.476562-10-10 4.476562-10 10-10 10 4.476562 10 10zm0 0"/><path d="m200 502c0 5.523438-4.476562 10-10 10s-10-4.476562-10-10 4.476562-10 10-10 10 4.476562 10 10zm0 0"/><path d="m142.582031 493.300781c4.511719 3.140625 10.75 2.058594 13.921875-2.492187 3.152344-4.53125 2.039063-10.765625-2.496094-13.921875-31.050781-21.617188-66.902343-62.910157-94.007812-108.167969v-32.71875c0-5.515625 4.484375-10 10-10s10 4.484375 10 10v20c0 16.542969 13.457031 30 30 30s30-13.457031 30-30v-20c0-5.515625 4.484375-10 10-10s10 4.484375 10 10v40c0 16.542969 13.457031 30 30 30s30-13.457031 30-30v-40c0-5.515625 4.484375-10 10-10s10 4.484375 10 10c0 16.542969 13.457031 30 30 30s30-13.457031 30-30c0-5.515625 4.484375-10 10-10s10 4.484375 10 10v32.714844c-27.117188 45.269531-62.945312 86.542968-94.011719 108.171875-4.53125 3.15625-5.644531 9.390625-2.492187 13.921875 3.15625 4.53125 9.390625 5.648437 13.921875 2.492187 63.152343-43.972656 142.582031-160.980469 142.582031-237.300781 0-84.238281-50.449219-118.253906-133.851562-127.292969 26.449218-18.011719 43.851562-48.363281 43.851562-82.707031 0-5.523438-4.476562-10-10-10-19.347656 0-38.152344 5.71875-54.328125 16.328125-8.417969-26.195313-27.203125-47.835937-28.15625-48.921875-1.898437-2.164062-4.636719-3.40625-7.515625-3.40625s-5.617188 1.242188-7.515625 3.40625c-.953125 1.085938-19.738281 22.726562-28.15625 48.921875-16.175781-10.609375-34.980469-16.328125-54.328125-16.328125-5.523438 0-10 4.476562-10 10 0 34.34375 17.402344 64.695312 43.851562 82.707031-83.417968 9.039063-133.851562 43.066407-133.851562 127.292969 0 76.582031 79.707031 193.523438 142.582031 237.300781zm-31.863281-436.5625c15.914062 2.210938 30.945312 9.304688 43.167969 20.519531 2.777343 2.546876 6.753906 3.320313 10.277343 1.992188 3.527344-1.324219 6.011719-4.519531 6.425782-8.265625 1.863281-16.914063 12.109375-34.15625 19.410156-44.566406 7.300781 10.414062 17.546875 27.652343 19.410156 44.566406.410156 3.746094 2.894532 6.941406 6.421875 8.265625 3.527344 1.328125 7.5.554688 10.277344-1.992188 12.222656-11.214843 27.257813-18.308593 43.171875-20.519531-5.261719 39.054688-38.808594 69.261719-79.28125 69.261719s-74.019531-30.207031-79.28125-69.261719zm79.28125 89.261719c94.859375 0 170 15.269531 170 110 0 20.859375-7.085938 46.984375-20.316406 75.679688-2.097656-14.5-14.609375-25.679688-29.683594-25.679688-16.542969 0-30 13.457031-30 30 0 5.515625-4.484375 10-10 10s-10-4.484375-10-10c0-16.542969-13.457031-30-30-30s-30 13.457031-30 30v40c0 5.515625-4.484375 10-10 10s-10-4.484375-10-10v-40c0-16.542969-13.457031-30-30-30s-30 13.457031-30 30v20c0 5.515625-4.484375 10-10 10s-10-4.484375-10-10v-20c0-16.542969-13.457031-30-30-30-15.078125 0-27.589844 11.183594-29.6875 25.691406-13.226562-28.699218-20.3125-54.820312-20.3125-75.691406 0-94.789062 75.257812-110 170-110zm0 0"/></svg>